<?xml version="1.0" encoding="UTF-8"?>
<svg id="Layer_1" data-name="Layer 1" xmlns="http://www.w3.org/2000/svg" xmlns:xlink="http://www.w3.org/1999/xlink" viewBox="0 0 300 113.01">
  <defs>
    <style>
      .cls-1 {
        fill: url(#linear-gradient);
      }

      .cls-1, .cls-2, .cls-3, .cls-4, .cls-5, .cls-6, .cls-7 {
        stroke-width: 0px;
      }

      .cls-2 {
        fill: url(#linear-gradient-4);
      }

      .cls-3 {
        fill: url(#linear-gradient-2);
      }

      .cls-4 {
        fill: url(#linear-gradient-3);
      }

      .cls-5 {
        fill: url(#linear-gradient-7);
      }

      .cls-6 {
        fill: url(#linear-gradient-5);
      }

      .cls-7 {
        fill: url(#linear-gradient-6);
      }
    </style>
    <linearGradient id="linear-gradient" x1="36.63" y1="24.45" x2="62.52" y2="113.12" gradientUnits="userSpaceOnUse">
      <stop offset=".16" stop-color="#872266"/>
      <stop offset=".17" stop-color="#8b2067"/>
      <stop offset=".33" stop-color="#ad1874"/>
      <stop offset=".49" stop-color="#c7127e"/>
      <stop offset=".65" stop-color="#da0d86"/>
      <stop offset=".82" stop-color="#e60a8a"/>
      <stop offset="1" stop-color="#ea0a8c"/>
    </linearGradient>
    <linearGradient id="linear-gradient-2" x1="87.41" y1="9.63" x2="113.3" y2="98.3" gradientUnits="userSpaceOnUse">
      <stop offset=".28" stop-color="#872266"/>
      <stop offset=".39" stop-color="#a11b70"/>
      <stop offset=".56" stop-color="#c0137c"/>
      <stop offset=".72" stop-color="#d70e84"/>
      <stop offset=".87" stop-color="#e50b8a"/>
      <stop offset="1" stop-color="#ea0a8c"/>
    </linearGradient>
    <linearGradient id="linear-gradient-3" x1="139.07" y1="40.52" x2="165.93" y2="94.56" xlink:href="#linear-gradient-2"/>
    <linearGradient id="linear-gradient-4" x1="162.84" y1="30.69" x2="189.7" y2="84.73" xlink:href="#linear-gradient-2"/>
    <linearGradient id="linear-gradient-5" x1="186.21" y1="21.74" x2="213.07" y2="75.78" xlink:href="#linear-gradient-2"/>
    <linearGradient id="linear-gradient-6" x1="202.82" y1="15.12" x2="229.68" y2="69.17" xlink:href="#linear-gradient-2"/>
    <linearGradient id="linear-gradient-7" x1="225.81" y1="6.56" x2="252.67" y2="60.6" xlink:href="#linear-gradient-2"/>
  </defs>
  <g>
    <path class="cls-1" d="m24.76,68.27l14.73-.92c.32,2.39.97,4.22,1.95,5.47,1.59,2.03,3.87,3.04,6.84,3.04,2.21,0,3.91-.52,5.11-1.56,1.2-1.04,1.79-2.24,1.79-3.61s-.57-2.46-1.71-3.49c-1.14-1.03-3.78-1.99-7.93-2.91-6.79-1.53-11.63-3.55-14.53-6.08-2.92-2.53-4.38-5.75-4.38-9.67,0-2.57.75-5.01,2.24-7.3,1.49-2.29,3.74-4.09,6.73-5.4,3-1.31,7.1-1.97,12.32-1.97,6.4,0,11.28,1.19,14.65,3.57,3.36,2.38,5.36,6.17,6,11.36l-14.59.85c-.39-2.26-1.2-3.9-2.44-4.92-1.24-1.03-2.96-1.54-5.14-1.54-1.8,0-3.16.38-4.07,1.15-.91.76-1.37,1.69-1.37,2.79,0,.8.38,1.52,1.13,2.15.73.66,2.46,1.28,5.2,1.85,6.77,1.46,11.62,2.93,14.54,4.43,2.93,1.49,5.06,3.34,6.39,5.55,1.33,2.21,2,4.68,2,7.42,0,3.21-.89,6.18-2.67,8.89-1.78,2.71-4.26,4.77-7.45,6.17-3.19,1.4-7.21,2.1-12.07,2.1-8.52,0-14.42-1.64-17.71-4.92s-5.14-7.45-5.57-12.51Z"/>
    <path class="cls-3" d="m76.06,59.83c0-8.18,2.28-14.55,6.84-19.11s10.9-6.84,19.04-6.84,14.77,2.24,19.28,6.72,6.77,10.75,6.77,18.82c0,5.86-.99,10.66-2.96,14.41-1.97,3.75-4.82,6.67-8.54,8.75s-8.37,3.13-13.93,3.13-10.33-.9-14.03-2.7c-3.7-1.8-6.71-4.65-9.01-8.54-2.3-3.9-3.45-8.77-3.45-14.63Zm15.48.07c0,5.06.94,8.69,2.82,10.9,1.88,2.21,4.44,3.32,7.67,3.32s5.9-1.08,7.72-3.25c1.82-2.16,2.73-6.05,2.73-11.66,0-4.72-.95-8.16-2.85-10.34-1.9-2.18-4.48-3.26-7.74-3.26s-5.63,1.11-7.52,3.32c-1.89,2.21-2.84,5.87-2.84,10.97Z"/>
  </g>
  <g>
    <path class="cls-4" d="m134.79,84.85v-50.11h27.72v5.91h-22.29v15.52h19.28v5.91h-19.28v22.76h-5.43Z"/>
    <path class="cls-2" d="m189.1,73.16l5.2.79c-.87,3.87-2.43,6.8-4.7,8.77-2.27,1.97-5.08,2.96-8.43,2.96-4.22,0-7.63-1.6-10.24-4.8-2.61-3.2-3.91-7.82-3.91-13.86s1.32-11.05,3.95-14.34c2.63-3.29,5.96-4.94,10-4.94s7.06,1.62,9.64,4.85c2.57,3.24,3.86,7.92,3.86,14.05l-.03,1.64h-22.22c.21,4.08,1.15,7.16,2.84,9.23,1.69,2.07,3.74,3.11,6.15,3.11,3.78,0,6.41-2.48,7.9-7.45Zm-16.58-9.95h16.61c-.23-3.14-.9-5.49-2.02-7.04-1.62-2.26-3.68-3.38-6.19-3.38-2.26,0-4.18.94-5.78,2.82-1.6,1.88-2.47,4.42-2.63,7.6Z"/>
    <path class="cls-6" d="m211.9,79.35l.68,5.43c-1.39.36-2.64.55-3.76.55-1.75,0-3.17-.35-4.24-1.04-1.07-.69-1.81-1.65-2.2-2.85-.4-1.21-.6-3.61-.6-7.21v-20.88h-3.69v-4.79h3.69v-8.99l5.02-3.69v12.68h5.09v4.79h-5.09v21.23c0,1.96.15,3.22.44,3.79.43.82,1.24,1.23,2.43,1.23.57,0,1.31-.08,2.22-.24Z"/>
    <path class="cls-7" d="m236.13,71.56l4.96.79c-.57,4.33-2,7.63-4.29,9.91-2.29,2.28-5.04,3.42-8.25,3.42-3.9,0-7.1-1.6-9.62-4.8-2.52-3.2-3.78-7.94-3.78-14.2s1.27-11.05,3.81-14.2c2.54-3.16,5.8-4.73,9.79-4.73,3.08,0,5.67.96,7.78,2.87,2.11,1.91,3.46,4.79,4.05,8.61l-4.89.89c-.48-2.45-1.31-4.28-2.5-5.49-1.19-1.21-2.61-1.82-4.27-1.82-2.48,0-4.54,1.1-6.17,3.3-1.63,2.2-2.44,5.69-2.44,10.48s.78,8.52,2.34,10.73c1.56,2.21,3.56,3.32,6,3.32,1.91,0,3.55-.73,4.9-2.2s2.22-3.75,2.58-6.85Z"/>
    <path class="cls-5" d="m245.36,84.85v-50.11h5.02v17.98c1.18-1.66,2.52-2.91,4.02-3.74,1.49-.83,3.14-1.25,4.94-1.25,3.17,0,5.67,1.01,7.5,3.02s2.75,5.71,2.75,11.09v23h-5.02v-23c0-3.14-.56-5.4-1.67-6.77-1.12-1.37-2.66-2.05-4.61-2.05-2.19,0-4.05.88-5.59,2.63-1.54,1.75-2.31,4.87-2.31,9.33v19.86h-5.02Z"/>
  </g>
</svg>